<?xml version="1.0" encoding="UTF-8" standalone="no"?>
<!DOCTYPE svg PUBLIC "-//W3C//DTD SVG 1.1//EN"
 "http://www.w3.org/Graphics/SVG/1.1/DTD/svg11.dtd">
<!-- Generated by graphviz version 2.36.0 (20140111.2315)
 -->
<!-- Title: %3 Pages: 1 -->
<svg width="536pt" height="290pt"
 viewBox="0.00 0.00 536.00 290.00" xmlns="http://www.w3.org/2000/svg" xmlns:xlink="http://www.w3.org/1999/xlink">
<g id="graph0" class="graph" transform="scale(1 1) rotate(0) translate(4 286)">
<title>%3</title>
<polygon fill="white" stroke="none" points="-4,4 -4,-286 532,-286 532,4 -4,4"/>
<g id="clust3" class="cluster"><title>cluster_thread_1</title>
<polygon fill="#ccffe0" stroke="#ccffe0" points="136,-8 136,-137 296,-137 296,-8 136,-8"/>
<text text-anchor="middle" x="216" y="-121.8" font-family="Times,serif" font-size="14.00">thread</text>
</g>
<g id="clust4" class="cluster"><title>cluster_audio_thread</title>
<polygon fill="#ffeacc" stroke="#ffeacc" points="316,-103 316,-178 520,-178 520,-103 316,-103"/>
<text text-anchor="middle" x="418" y="-162.8" font-family="Times,serif" font-size="14.00">coreaudio thread</text>
</g>
<g id="clust1" class="cluster"><title>cluster_midi_thread</title>
<polygon fill="#d6ccff" stroke="#d6ccff" points="8,-103 8,-178 116,-178 116,-103 8,-103"/>
<text text-anchor="middle" x="62" y="-162.8" font-family="Times,serif" font-size="14.00">coremidi thread</text>
</g>
<g id="clust2" class="cluster"><title>cluster_thread_0</title>
<polygon fill="#ccffe0" stroke="#ccffe0" points="136,-145 136,-274 296,-274 296,-145 136,-145"/>
<text text-anchor="middle" x="216" y="-258.8" font-family="Times,serif" font-size="14.00">thread</text>
</g>
<!-- mc -->
<g id="node1" class="node"><title>mc</title>
<polygon fill="none" stroke="black" points="108,-147 16,-147 16,-111 108,-111 108,-147"/>
<text text-anchor="middle" x="62" y="-125.3" font-family="Times,serif" font-size="14.00">midi callback</text>
</g>
<!-- v0 -->
<g id="node2" class="node"><title>v0</title>
<polygon fill="none" stroke="black" points="198,-243 144,-243 144,-207 198,-207 198,-243"/>
<text text-anchor="middle" x="171" y="-221.3" font-family="Times,serif" font-size="14.00">voice</text>
</g>
<!-- mc&#45;&gt;v0 -->
<g id="edge6" class="edge"><title>mc&#45;&gt;v0</title>
<path fill="none" stroke="black" d="M81.1952,-147.033C95.7228,-161.225 116.761,-181.323 136,-198 136.961,-198.833 137.943,-199.674 138.94,-200.517"/>
<polygon fill="black" stroke="black" points="136.8,-203.289 146.737,-206.964 141.26,-197.894 136.8,-203.289"/>
</g>
<!-- v1 -->
<g id="node3" class="node"><title>v1</title>
<polygon fill="none" stroke="black" points="198,-189 144,-189 144,-153 198,-153 198,-189"/>
<text text-anchor="middle" x="171" y="-167.3" font-family="Times,serif" font-size="14.00">voice</text>
</g>
<!-- mc&#45;&gt;v1 -->
<g id="edge7" class="edge"><title>mc&#45;&gt;v1</title>
<path fill="none" stroke="black" d="M108.068,-146.69C116.852,-150.138 125.948,-153.709 134.376,-157.017"/>
<polygon fill="black" stroke="black" points="133.315,-160.36 143.903,-160.756 135.873,-153.844 133.315,-160.36"/>
</g>
<!-- v2 -->
<g id="node5" class="node"><title>v2</title>
<polygon fill="none" stroke="black" points="198,-106 144,-106 144,-70 198,-70 198,-106"/>
<text text-anchor="middle" x="171" y="-84.3" font-family="Times,serif" font-size="14.00">voice</text>
</g>
<!-- mc&#45;&gt;v2 -->
<g id="edge8" class="edge"><title>mc&#45;&gt;v2</title>
<path fill="none" stroke="black" d="M108.068,-111.731C116.852,-108.365 125.948,-104.88 134.376,-101.65"/>
<polygon fill="black" stroke="black" points="135.817,-104.846 143.903,-97.9998 133.313,-98.3097 135.817,-104.846"/>
</g>
<!-- v3 -->
<g id="node6" class="node"><title>v3</title>
<polygon fill="none" stroke="black" points="198,-52 144,-52 144,-16 198,-16 198,-52"/>
<text text-anchor="middle" x="171" y="-30.3" font-family="Times,serif" font-size="14.00">voice</text>
</g>
<!-- mc&#45;&gt;v3 -->
<g id="edge9" class="edge"><title>mc&#45;&gt;v3</title>
<path fill="none" stroke="black" d="M81.5343,-110.973C96.0719,-97.0207 116.963,-77.3808 136,-61 136.964,-60.1704 137.949,-59.3328 138.947,-58.4919"/>
<polygon fill="black" stroke="black" points="141.264,-61.1184 146.756,-52.0583 136.813,-55.7159 141.264,-61.1184"/>
</g>
<!-- m0 -->
<g id="node4" class="node"><title>m0</title>
<polygon fill="none" stroke="black" points="288,-189 234,-189 234,-153 288,-153 288,-189"/>
<text text-anchor="middle" x="261" y="-167.3" font-family="Times,serif" font-size="14.00">mixer</text>
</g>
<!-- v0&#45;&gt;m0 -->
<g id="edge1" class="edge"><title>v0&#45;&gt;m0</title>
<path fill="none" stroke="black" d="M198.403,-208.798C206.832,-203.626 216.293,-197.82 225.224,-192.34"/>
<polygon fill="black" stroke="black" points="227.226,-195.218 233.919,-187.004 223.565,-189.251 227.226,-195.218"/>
</g>
<!-- v1&#45;&gt;m0 -->
<g id="edge2" class="edge"><title>v1&#45;&gt;m0</title>
<path fill="none" stroke="black" d="M198.403,-171C206.393,-171 215.311,-171 223.824,-171"/>
<polygon fill="black" stroke="black" points="223.919,-174.5 233.919,-171 223.919,-167.5 223.919,-174.5"/>
</g>
<!-- m2 -->
<g id="node8" class="node"><title>m2</title>
<polygon fill="none" stroke="black" points="378,-147 324,-147 324,-111 378,-111 378,-147"/>
<text text-anchor="middle" x="351" y="-125.3" font-family="Times,serif" font-size="14.00">mixer</text>
</g>
<!-- m0&#45;&gt;m2 -->
<g id="edge10" class="edge"><title>m0&#45;&gt;m2</title>
<path fill="none" stroke="black" d="M288.403,-158.399C296.657,-154.459 305.9,-150.048 314.665,-145.865"/>
<polygon fill="black" stroke="black" points="316.402,-148.914 323.919,-141.448 313.387,-142.596 316.402,-148.914"/>
</g>
<!-- m1 -->
<g id="node7" class="node"><title>m1</title>
<polygon fill="none" stroke="black" points="288,-106 234,-106 234,-70 288,-70 288,-106"/>
<text text-anchor="middle" x="261" y="-84.3" font-family="Times,serif" font-size="14.00">mixer</text>
</g>
<!-- v2&#45;&gt;m1 -->
<g id="edge3" class="edge"><title>v2&#45;&gt;m1</title>
<path fill="none" stroke="black" d="M198.403,-88C206.393,-88 215.311,-88 223.824,-88"/>
<polygon fill="black" stroke="black" points="223.919,-91.5001 233.919,-88 223.919,-84.5001 223.919,-91.5001"/>
</g>
<!-- v3&#45;&gt;m1 -->
<g id="edge4" class="edge"><title>v3&#45;&gt;m1</title>
<path fill="none" stroke="black" d="M198.403,-50.2018C206.832,-55.3743 216.293,-61.18 225.224,-66.6599"/>
<polygon fill="black" stroke="black" points="223.565,-69.7487 233.919,-71.9957 227.226,-63.7824 223.565,-69.7487"/>
</g>
<!-- m1&#45;&gt;m2 -->
<g id="edge11" class="edge"><title>m1&#45;&gt;m2</title>
<path fill="none" stroke="black" d="M288.403,-100.301C296.657,-104.147 305.9,-108.453 314.665,-112.537"/>
<polygon fill="black" stroke="black" points="313.376,-115.798 323.919,-116.849 316.333,-109.453 313.376,-115.798"/>
</g>
<!-- ac -->
<g id="node9" class="node"><title>ac</title>
<polygon fill="none" stroke="black" points="512,-147 414,-147 414,-111 512,-111 512,-147"/>
<text text-anchor="middle" x="463" y="-125.3" font-family="Times,serif" font-size="14.00">audio callback</text>
</g>
<!-- m2&#45;&gt;ac -->
<g id="edge5" class="edge"><title>m2&#45;&gt;ac</title>
<path fill="none" stroke="black" d="M378.068,-129C385.823,-129 394.651,-129 403.599,-129"/>
<polygon fill="black" stroke="black" points="403.702,-132.5 413.702,-129 403.702,-125.5 403.702,-132.5"/>
</g>
</g>
</svg>
