<?xml version="1.0" encoding="UTF-8" standalone="no"?>
<!DOCTYPE svg PUBLIC "-//W3C//DTD SVG 1.1//EN"
 "http://www.w3.org/Graphics/SVG/1.1/DTD/svg11.dtd">
<!-- Generated by graphviz version 2.36.0 (20140111.2315)
 -->
<!-- Title: %3 Pages: 1 -->
<svg width="482pt" height="361pt"
 viewBox="0.00 0.00 482.00 361.00" xmlns="http://www.w3.org/2000/svg" xmlns:xlink="http://www.w3.org/1999/xlink">
<g id="graph0" class="graph" transform="scale(1 1) rotate(0) translate(4 357)">
<title>%3</title>
<polygon fill="white" stroke="none" points="-4,4 -4,-357 478,-357 478,4 -4,4"/>
<g id="clust1" class="cluster"><title>cluster_voice</title>
<polygon fill="#ccffe0" stroke="#ccffe0" points="8,-8 8,-345 392,-345 392,-8 8,-8"/>
<text text-anchor="middle" x="200" y="-329.8" font-family="Times,serif" font-size="14.00">voice</text>
</g>
<!-- o0 -->
<g id="node1" class="node"><title>o0</title>
<polygon fill="none" stroke="black" points="85.5,-312 16.5,-312 16.5,-276 85.5,-276 85.5,-312"/>
<text text-anchor="middle" x="51" y="-290.3" font-family="Times,serif" font-size="14.00">oscillator</text>
</g>
<!-- o1 -->
<g id="node2" class="node"><title>o1</title>
<polygon fill="none" stroke="black" points="191.5,-294 122.5,-294 122.5,-258 191.5,-258 191.5,-294"/>
<text text-anchor="middle" x="157" y="-272.3" font-family="Times,serif" font-size="14.00">oscillator</text>
</g>
<!-- o0&#45;&gt;o1 -->
<!-- m -->
<g id="node10" class="node"><title>m</title>
<polygon fill="none" stroke="black" points="282,-183 228,-183 228,-147 282,-147 282,-183"/>
<text text-anchor="middle" x="255" y="-161.3" font-family="Times,serif" font-size="14.00">mixer</text>
</g>
<!-- o0&#45;&gt;m -->
<g id="edge1" class="edge"><title>o0&#45;&gt;m</title>
<path fill="none" stroke="black" d="M85.6729,-306.763C115.955,-315.931 160.407,-323.441 192,-303 229.409,-278.796 244.465,-226.072 250.365,-193.254"/>
<polygon fill="black" stroke="black" points="253.823,-193.792 251.976,-183.36 246.914,-192.668 253.823,-193.792"/>
</g>
<!-- o1&#45;&gt;m -->
<g id="edge2" class="edge"><title>o1&#45;&gt;m</title>
<path fill="none" stroke="black" d="M178.267,-257.87C182.911,-253.46 187.734,-248.667 192,-244 207.285,-227.279 223.026,-207.18 234.823,-191.439"/>
<polygon fill="black" stroke="black" points="237.794,-193.308 240.943,-183.192 232.173,-189.137 237.794,-193.308"/>
</g>
<!-- o2 -->
<g id="node3" class="node"><title>o2</title>
<polygon fill="none" stroke="black" points="85.5,-257 16.5,-257 16.5,-221 85.5,-221 85.5,-257"/>
<text text-anchor="middle" x="51" y="-235.3" font-family="Times,serif" font-size="14.00">oscillator</text>
</g>
<!-- o2&#45;&gt;m -->
<g id="edge3" class="edge"><title>o2&#45;&gt;m</title>
<path fill="none" stroke="black" d="M85.6325,-243.118C115.086,-245.246 158.321,-244.703 192,-229 209.649,-220.771 224.931,-205.161 235.908,-191.419"/>
<polygon fill="black" stroke="black" points="238.901,-193.264 242.168,-183.186 233.329,-189.027 238.901,-193.264"/>
</g>
<!-- o3 -->
<g id="node4" class="node"><title>o3</title>
<polygon fill="none" stroke="black" points="191.5,-220 122.5,-220 122.5,-184 191.5,-184 191.5,-220"/>
<text text-anchor="middle" x="157" y="-198.3" font-family="Times,serif" font-size="14.00">oscillator</text>
</g>
<!-- o3&#45;&gt;m -->
<g id="edge4" class="edge"><title>o3&#45;&gt;m</title>
<path fill="none" stroke="black" d="M191.576,-189.059C200.219,-185.728 209.549,-182.132 218.296,-178.761"/>
<polygon fill="black" stroke="black" points="219.783,-181.939 227.855,-175.077 217.265,-175.407 219.783,-181.939"/>
</g>
<!-- o4 -->
<g id="node5" class="node"><title>o4</title>
<polygon fill="none" stroke="black" points="85.5,-183 16.5,-183 16.5,-147 85.5,-147 85.5,-183"/>
<text text-anchor="middle" x="51" y="-161.3" font-family="Times,serif" font-size="14.00">oscillator</text>
</g>
<!-- o4&#45;&gt;m -->
<g id="edge5" class="edge"><title>o4&#45;&gt;m</title>
<path fill="none" stroke="black" d="M85.8103,-165C122.202,-165 179.891,-165 217.348,-165"/>
<polygon fill="black" stroke="black" points="217.809,-168.5 227.809,-165 217.809,-161.5 217.809,-168.5"/>
</g>
<!-- o5 -->
<g id="node6" class="node"><title>o5</title>
<polygon fill="none" stroke="black" points="191.5,-146 122.5,-146 122.5,-110 191.5,-110 191.5,-146"/>
<text text-anchor="middle" x="157" y="-124.3" font-family="Times,serif" font-size="14.00">oscillator</text>
</g>
<!-- o5&#45;&gt;m -->
<g id="edge6" class="edge"><title>o5&#45;&gt;m</title>
<path fill="none" stroke="black" d="M191.576,-140.941C200.219,-144.272 209.549,-147.868 218.296,-151.239"/>
<polygon fill="black" stroke="black" points="217.265,-154.593 227.855,-154.923 219.783,-148.061 217.265,-154.593"/>
</g>
<!-- o6 -->
<g id="node7" class="node"><title>o6</title>
<polygon fill="none" stroke="black" points="85.5,-109 16.5,-109 16.5,-73 85.5,-73 85.5,-109"/>
<text text-anchor="middle" x="51" y="-87.3" font-family="Times,serif" font-size="14.00">oscillator</text>
</g>
<!-- o6&#45;&gt;m -->
<g id="edge7" class="edge"><title>o6&#45;&gt;m</title>
<path fill="none" stroke="black" d="M85.6325,-86.8816C115.086,-84.7539 158.321,-85.2968 192,-101 209.649,-109.229 224.931,-124.839 235.908,-138.581"/>
<polygon fill="black" stroke="black" points="233.329,-140.973 242.168,-146.814 238.901,-136.736 233.329,-140.973"/>
</g>
<!-- o7 -->
<g id="node8" class="node"><title>o7</title>
<polygon fill="none" stroke="black" points="191.5,-72 122.5,-72 122.5,-36 191.5,-36 191.5,-72"/>
<text text-anchor="middle" x="157" y="-50.3" font-family="Times,serif" font-size="14.00">oscillator</text>
</g>
<!-- o7&#45;&gt;m -->
<g id="edge8" class="edge"><title>o7&#45;&gt;m</title>
<path fill="none" stroke="black" d="M178.267,-72.1296C182.911,-76.5396 187.734,-81.3333 192,-86 207.285,-102.721 223.026,-122.82 234.823,-138.561"/>
<polygon fill="black" stroke="black" points="232.173,-140.863 240.943,-146.808 237.794,-136.692 232.173,-140.863"/>
</g>
<!-- o8 -->
<g id="node9" class="node"><title>o8</title>
<polygon fill="none" stroke="black" points="85.5,-52 16.5,-52 16.5,-16 85.5,-16 85.5,-52"/>
<text text-anchor="middle" x="51" y="-30.3" font-family="Times,serif" font-size="14.00">oscillator</text>
</g>
<!-- o8&#45;&gt;m -->
<g id="edge9" class="edge"><title>o8&#45;&gt;m</title>
<path fill="none" stroke="black" d="M85.685,-21.9391C115.975,-13.3535 160.432,-6.57532 192,-27 229.409,-51.2042 244.465,-103.928 250.365,-136.746"/>
<polygon fill="black" stroke="black" points="246.914,-137.332 251.976,-146.64 253.823,-136.208 246.914,-137.332"/>
</g>
<!-- a -->
<g id="node11" class="node"><title>a</title>
<polygon fill="none" stroke="black" points="383.5,-183 318.5,-183 318.5,-147 383.5,-147 383.5,-183"/>
<text text-anchor="middle" x="351" y="-161.3" font-family="Times,serif" font-size="14.00">amp/env</text>
</g>
<!-- m&#45;&gt;a -->
<g id="edge10" class="edge"><title>m&#45;&gt;a</title>
<path fill="none" stroke="black" d="M282.184,-165C290.228,-165 299.29,-165 308.11,-165"/>
<polygon fill="black" stroke="black" points="308.276,-168.5 318.276,-165 308.276,-161.5 308.276,-168.5"/>
</g>
<!-- ao -->
<!-- a&#45;&gt;ao -->
<g id="edge12" class="edge"><title>a&#45;&gt;ao</title>
<path fill="none" stroke="black" d="M383.562,-165C391.98,-165 401.141,-165 409.788,-165"/>
<polygon fill="black" stroke="black" points="409.994,-168.5 419.994,-165 409.994,-161.5 409.994,-168.5"/>
</g>
</g>
</svg>
